<svg xmlns="http://www.w3.org/2000/svg" width="24" height="24" viewBox="0 0 24 24"><defs><style>.a{fill:none;}.b{fill:#cbcbcb;}</style></defs><g transform="translate(498 1337)"><rect class="a" width="24" height="24" transform="translate(-498 -1337)"/><path class="b" d="M141.854,121.044h12.913v2.311a.639.639,0,0,0,1.1.452l3.6-3.6a.639.639,0,0,0,0-.917l-3.6-3.6a.646.646,0,0,0-1.1.465v2.311h-14.2a1.3,1.3,0,0,0-1.291,1.291v5.165a1.291,1.291,0,1,0,2.583,0Zm12.913,12.913H141.854v-2.311a.639.639,0,0,0-1.1-.452l-3.6,3.6a.639.639,0,0,0,0,.917l3.6,3.6a.646.646,0,0,0,1.1-.465V136.54h14.2a1.3,1.3,0,0,0,1.291-1.291v-5.165a1.291,1.291,0,1,0-2.583,0Z" transform="translate(-633.96 -1452.501)"/></g></svg>