<svg xmlns="http://www.w3.org/2000/svg" width="20" height="15.355" viewBox="0 0 20 15.355"><defs><style>.a{fill:#cbcbcb;}</style></defs><path class="a" d="M47.111,162.98H43.576a.909.909,0,0,1-.909-.909v-5.455a.909.909,0,0,1,.909-.909h3.535l4.813-3.938a.455.455,0,0,1,.743.352v14.445a.455.455,0,0,1-.743.352l-4.812-3.938ZM59.4,166.738l-1.287-1.287a8.182,8.182,0,0,0-.267-12.442l1.291-1.291a10,10,0,0,1,.264,15.02Zm-3.221-3.221-1.293-1.293a3.637,3.637,0,0,0-.292-5.965l1.308-1.308a5.455,5.455,0,0,1,.276,8.565Z" transform="translate(-42.667 -151.666)"/></svg>